<svg id="Layer_1" data-name="Layer 1" xmlns="http://www.w3.org/2000/svg" viewBox="0 0 40 40"><defs><style>.cls-1{fill:#007185;}</style></defs><path class="cls-1" d="M10.15,37.29a9.85,9.85,0,0,1-7-16.81L19.77,3.89a9.85,9.85,0,0,1,16.82,7,9.77,9.77,0,0,1-2.88,7l-5.09,5.09-1-1,5.09-5.09a8.45,8.45,0,1,0-12-11.95L4.17,21.47a8.45,8.45,0,0,0,12,12l4.1-4.1,1,1-4.1,4.1A9.84,9.84,0,0,1,10.15,37.29Z"/><path class="cls-1" d="M29.55,39a1.42,1.42,0,0,1-.78-.23c-1-.62-9.37-6.22-9.37-11.35A6.26,6.26,0,0,1,29.55,22.5a6.34,6.34,0,0,1,3.88-1.36,6.27,6.27,0,0,1,6.27,6.27c0,5.39-8.42,10.77-9.38,11.37A1.49,1.49,0,0,1,29.55,39ZM25.67,22.54a4.88,4.88,0,0,0-4.87,4.87c0,3.57,5.71,8.22,8.72,10.18,3.08-1.88,8.78-6.41,8.78-10.18a4.87,4.87,0,0,0-4.87-4.87A4.92,4.92,0,0,0,30,23.93a.69.69,0,0,1-1,0A4.9,4.9,0,0,0,25.67,22.54Z"/><path class="cls-1" d="M22.91,28.76a.7.7,0,0,1-.7-.7,4.25,4.25,0,0,1,4.25-4.24.7.7,0,1,1,0,1.4,2.85,2.85,0,0,0-2.85,2.84A.7.7,0,0,1,22.91,28.76Z"/><path class="cls-1" d="M6.57,25.36a.7.7,0,0,1-.5-1.19L6.21,24a.7.7,0,1,1,1,1l-.13.13A.7.7,0,0,1,6.57,25.36Z"/><path class="cls-1" d="M9.75,28.54a.7.7,0,0,1-.49-1.19l.14-.14a.71.71,0,0,1,1,0,.7.7,0,0,1,0,1l-.13.14A.69.69,0,0,1,9.75,28.54Z"/><path class="cls-1" d="M5.59,29.34a.7.7,0,0,1-.5-.21.7.7,0,0,1,0-1L5.23,28a.7.7,0,0,1,1,1l-.14.14A.7.7,0,0,1,5.59,29.34Z"/><path class="cls-1" d="M8.77,32.59a.7.7,0,0,1-.49-.2.69.69,0,0,1,0-1l.14-.14a.71.71,0,0,1,1,0,.7.7,0,0,1,0,1l-.13.14A.74.74,0,0,1,8.77,32.59Z"/><path class="cls-1" d="M12.94,31.73a.71.71,0,0,1-.5-1.2l.14-.13a.69.69,0,0,1,1,0,.71.71,0,0,1,0,1l-.14.13A.67.67,0,0,1,12.94,31.73Z"/><rect class="cls-1" x="13.03" y="17.65" width="1.4" height="12.45" transform="translate(-12.86 16.7) rotate(-45)"/><path class="cls-1" d="M24.19,7.74a.7.7,0,0,1-.49-1.2l.13-.13a.7.7,0,0,1,1,0,.69.69,0,0,1,0,1l-.13.13A.7.7,0,0,1,24.19,7.74Z"/><path class="cls-1" d="M27.38,10.92a.74.74,0,0,1-.5-.2.71.71,0,0,1,0-1L27,9.59a.7.7,0,0,1,1,1l-.14.14A.73.73,0,0,1,27.38,10.92Z"/><path class="cls-1" d="M28.17,6.76a.7.7,0,0,1-.5-.21.7.7,0,0,1,0-1l.13-.14a.7.7,0,0,1,1,0,.69.69,0,0,1,0,1l-.13.13A.7.7,0,0,1,28.17,6.76Z"/><path class="cls-1" d="M31.42,9.94a.73.73,0,0,1-.49-.2.71.71,0,0,1,0-1l.13-.14a.71.71,0,0,1,1,0,.7.7,0,0,1,0,1l-.14.14A.74.74,0,0,1,31.42,9.94Z"/><path class="cls-1" d="M30.56,14.11a.71.71,0,0,1-.5-1.2l.14-.13a.7.7,0,0,1,1,0,.71.71,0,0,1,0,1l-.14.14A.67.67,0,0,1,30.56,14.11Z"/><rect class="cls-1" x="22.84" y="7.84" width="1.4" height="12.45" transform="translate(-3.05 20.76) rotate(-45)"/></svg>